<svg viewBox="114.97499999999991 122.42696629213481 792.0500000000002 688.6516853932586" fill="none" xmlns="http://www.w3.org/2000/svg" xmlns:xlink="http://www.w3.org/1999/xlink" overflow="visible" width="792.0500000000002px" height="688.6516853932586px"><g id="Master/Scenes/Communication"><g id="Background" transform="translate(271 173) scale(1 1)"><g id="Background/1"><path id="Fill 3" fill-rule="evenodd" clip-rule="evenodd" d="M401.585 21.6223C324.481 -31.5289 222.87 16.9322 174.633 129.863L174.597 129.947C172.327 135.265 168.47 139.362 163.384 141.797C138.795 153.569 115.027 169.313 93.1804 188.984C-8.18827 280.257 -29.8672 421.435 44.7573 504.314C119.382 587.193 262.052 580.389 363.421 489.117C415.428 442.289 446.46 382.325 454.271 323.837C454.585 321.484 455.157 319.254 455.993 317.194C501.368 205.349 477.522 73.9681 401.585 21.6223" fill="black" fill-opacity="0.04"/></g></g><g id="Group 88"><path id="Fill 1" fill-rule="evenodd" clip-rule="evenodd" d="M501.342 257.704C500.018 257.316 498.584 257.184 497.099 257.365C492.632 257.907 488.914 261.399 488.138 265.832C487.508 269.429 488.723 272.768 490.993 275.06C491.933 276.009 492.181 277.44 491.571 278.628C488.411 284.792 483.589 292.702 478.573 304.098C463.924 337.377 454.02 373.065 413.578 382.35C378.523 390.399 355.31 356.91 371.707 325.9C385.675 299.485 415.543 293.36 434.347 272.385C451.478 253.274 453.936 223.807 478.498 210.452C485.587 206.598 493.88 205.246 501.66 207.388C519.925 212.415 522.545 231.867 513.98 246.06C510.81 251.313 507.329 254.884 504.644 257.011C503.714 257.747 502.482 258.038 501.342 257.704" fill="black"/><path id="Stroke 3" d="M514.382 228.902C515.042 228.402 515.983 228.533 516.483 229.194L517.899 231.048L520.739 234.725C524.429 239.53 526.304 242.202 528.243 245.561C531.402 251.028 533.836 257.094 535.547 263.598C535.856 264.775 536.143 265.973 536.408 267.196C538.221 275.562 538.031 281.092 534.018 284.922C530.678 288.111 524.418 290.523 516.001 292.377C511.676 293.33 507.053 294.071 502.43 294.627L501.074 294.784C500.189 294.884 499.346 294.971 498.551 295.047L496.931 295.192L496.253 295.246C495.427 295.304 494.71 294.681 494.652 293.854C494.594 293.028 495.217 292.311 496.043 292.253L496.916 292.183C497.155 292.163 497.413 292.14 497.69 292.115L498.859 292.003C499.862 291.902 500.938 291.785 502.072 291.648C506.605 291.103 511.136 290.377 515.356 289.448L516.422 289.207C523.791 287.499 529.251 285.325 531.946 282.752C534.912 279.922 535.074 275.203 533.476 267.831C533.22 266.651 532.944 265.495 532.645 264.361C531.001 258.107 528.665 252.29 525.645 247.061L525.326 246.515C523.519 243.447 521.647 240.821 518.029 236.121L515.342 232.644C514.993 232.191 514.687 231.791 514.388 231.397L514.089 231.003C513.59 230.342 513.721 229.401 514.382 228.902Z" fill="black"/><path id="Stroke 5" d="M510.416 291.405C510.566 290.591 511.349 290.052 512.163 290.203C512.93 290.345 513.452 291.046 513.385 291.807L513.365 291.951L508.319 319.235C508.169 320.049 507.386 320.588 506.572 320.437C505.805 320.295 505.283 319.594 505.35 318.833L505.37 318.689L510.416 291.405Z" fill="black"/><path id="Stroke 7" d="M612.246 214.12C612.745 213.493 613.64 213.374 614.282 213.825L614.399 213.916L629.606 226.991C630.151 227.459 630.282 228.241 629.939 228.857L629.859 228.986L583.252 295.861C583.188 295.952 583.115 296.035 583.034 296.109L582.906 296.214L516.924 344.433C516.255 344.922 515.317 344.776 514.828 344.107C514.368 343.478 514.47 342.609 515.041 342.102L515.154 342.011L580.932 293.941L626.622 228.381L613.625 217.206L570.168 271.937C570.036 272.103 569.871 272.238 569.684 272.335L569.54 272.401L524.749 289.954C523.978 290.256 523.108 289.876 522.805 289.105C522.521 288.379 522.841 287.565 523.523 287.22L523.655 287.161L568.07 269.754L612.246 214.12Z" fill="black"/><path id="Stroke 9" d="M627.223 181.731C627.588 180.754 628.801 180.45 629.583 181.098L629.686 181.193L632.284 183.779C634.443 185.928 635.316 189.043 634.605 191.988L634.528 192.282L632.622 199.125L633.859 200.237C638.446 204.361 639.247 211.232 635.779 216.293L635.593 216.558L627.83 227.277C627.344 227.948 626.406 228.098 625.735 227.612C625.104 227.154 624.934 226.297 625.321 225.638L625.4 225.517L633.163 214.798C635.888 211.036 635.401 205.855 632.065 202.665L631.853 202.468L629.925 200.733C629.537 200.384 629.361 199.861 629.452 199.353L629.483 199.215L631.638 191.477C632.169 189.574 631.674 187.537 630.346 186.09L630.168 185.905L629.219 184.961L617.065 217.504C616.792 218.234 616.011 218.626 615.273 218.428L615.135 218.384C614.405 218.111 614.013 217.33 614.211 216.592L614.255 216.454L627.223 181.731Z" fill="black"/><path id="Stroke 11" d="M479.788 313.814C485.118 312.348 489.093 311.888 494.231 312.833L494.749 312.938C495.369 313.07 496.052 313.241 496.877 313.487C498.48 313.963 500.135 314.589 501.792 315.389C506.221 317.527 510.008 320.569 512.728 324.686L513.015 325.131C513.147 325.342 513.364 325.714 513.637 326.229C514.086 327.074 514.533 328.023 514.951 329.056C515.655 330.799 516.203 332.605 516.532 334.438L516.621 334.964C517.924 343.231 516.487 360.89 513.13 384.859C512.068 392.445 510.869 400.238 509.606 407.938L509.061 411.231C508.796 412.817 508.536 414.35 508.284 415.822L507.4 420.909L507.105 422.571L593.026 430.957C593.69 431.022 594.232 431.518 594.355 432.174C595.354 437.508 595.254 443.284 593.113 449.55C590.823 456.209 587.065 461.025 582.695 464.683C582.469 464.873 582.192 464.991 581.899 465.024L572.614 466.071C559.004 467.617 545.339 469.222 530.431 471.046L495.925 475.341C488.983 476.191 484.501 476.69 480.927 477.001L479.338 477.131C471.553 477.726 467.855 477.321 464.126 475.564L463.811 475.412C454.3 470.723 449.507 460.24 448.086 443.779L447.976 442.425C447.115 431.09 447.558 420.794 449.589 395.998L450.822 381.075C450.998 378.877 451.147 376.936 451.29 374.986L451.381 373.729C451.884 366.732 452.221 360.629 452.401 354.882C452.427 354.054 453.119 353.404 453.947 353.43C454.775 353.456 455.425 354.148 455.4 354.976L455.333 356.92C455.153 361.817 454.862 366.999 454.456 372.78L454.22 376.044C454.002 378.981 453.763 381.983 453.435 385.946L452.526 396.889C450.555 421.037 450.131 431.171 450.968 442.198L451.025 442.933C452.305 458.799 456.681 468.553 465.135 472.72L465.405 472.85C468.582 474.347 471.821 474.7 479.147 474.137L480.67 474.012C483.247 473.788 486.315 473.463 490.471 472.975L525.966 468.571L534.105 467.576C548.138 465.87 561.135 464.351 574.132 462.879L581.11 462.093L581.142 462.067C584.846 458.876 588.041 454.735 590.075 449.141L590.275 448.577C592.032 443.438 592.281 438.652 591.649 434.199L591.593 433.831L505.195 425.399C504.321 425.314 503.707 424.5 503.865 423.637L504.405 420.619L505.029 417.048C505.373 415.061 505.732 412.951 506.102 410.737C507.561 401.998 508.949 393.084 510.159 384.443L510.575 381.431C513.651 358.853 514.894 342.231 513.58 334.971C513.289 333.354 512.8 331.742 512.169 330.179C511.855 329.403 511.523 328.68 511.188 328.022L510.987 327.635C510.75 327.188 510.57 326.879 510.476 326.73C508.067 322.907 504.602 320.077 500.488 318.091C498.983 317.364 497.478 316.795 496.022 316.362C495.067 316.078 494.336 315.907 493.678 315.781C489.085 314.937 485.516 315.35 480.578 316.708C478.073 317.387 475.63 318.322 473.271 319.481C472.527 319.847 471.628 319.54 471.263 318.797C470.898 318.053 471.204 317.154 471.948 316.789C474.476 315.547 477.097 314.543 479.788 313.814Z" fill="black"/><path id="Stroke 13" d="M621.228 420.872C621.997 420.144 623.242 420.426 623.64 421.377L623.687 421.505L625.219 426.299C626.624 430.708 625.472 435.522 622.248 438.814L622.014 439.047L617.832 443.099C616.48 444.409 615.408 445.977 614.679 447.707L614.517 448.109C612.386 453.637 607.344 457.496 601.473 458.123L601.228 458.146L585.678 461.437C584.915 461.599 584.165 461.149 583.936 460.42L583.9 460.28C583.738 459.517 584.188 458.767 584.917 458.539L585.057 458.502L600.69 455.194L600.874 455.167C605.64 454.764 609.771 451.734 611.597 447.333L611.718 447.031C612.546 444.878 613.806 442.919 615.418 441.27L615.745 440.944L619.927 436.892C622.434 434.463 623.396 430.858 622.452 427.514L622.36 427.211L621.555 424.69L612.253 433.487C612.071 433.659 611.849 433.782 611.609 433.846L611.462 433.877L593.679 436.756C592.861 436.889 592.091 436.333 591.959 435.515C591.834 434.746 592.319 434.018 593.058 433.825L593.2 433.795L610.525 430.99L621.228 420.872Z" fill="black"/><path id="Stroke 15" d="M383.094 378.243C383.383 377.467 384.247 377.072 385.024 377.361C385.754 377.634 386.147 378.415 385.95 379.153L385.906 379.291L345.086 488.857C341.309 498.996 346.728 510.261 356.989 513.553C377.638 520.175 399.475 523.667 420.985 522.183C448.881 520.258 473.613 510.051 493.839 489.818L494.647 489L494.648 473.805C494.648 473.025 495.243 472.385 496.003 472.312L496.148 472.305C496.928 472.305 497.568 472.9 497.641 473.661L497.648 473.805V489.612C497.648 490.002 497.496 490.377 497.224 490.657C476.229 512.282 450.36 523.163 421.192 525.175C399.257 526.689 377.056 523.139 356.073 516.409C344.297 512.631 338.028 499.808 342.147 488.162L342.275 487.809L383.094 378.243Z" fill="black"/><path id="Stroke 17" d="M348.587 511.112C348.801 510.312 349.623 509.836 350.423 510.05C351.224 510.264 351.699 511.086 351.485 511.887C347.891 525.338 347.958 539.099 353.385 552.173C359.858 567.784 372.395 578.449 388.863 585.058C394.818 587.448 400.931 589.151 406.92 590.277C409.128 590.692 411.2 591.006 413.102 591.231L414.21 591.355C415.02 591.439 415.708 591.496 416.263 591.531C425.474 592.121 432.994 590.993 446.212 587.371C473.973 579.76 502.901 568.287 533.949 550.961C534.958 550.398 536.197 551.138 536.18 552.293L535.915 568.514C535.662 582.726 535.348 597.247 534.872 617.023L533.181 685.268C532.651 707.187 532.317 722.672 532.05 738.153L531.845 750.809L556.803 764.216L557.034 762.769C559.84 745.169 562.661 728.631 565.843 710.909L568.534 696.131C571.353 680.794 575.437 658.769 575.64 657.663L576.875 650.896C579.994 633.719 582.416 619.615 584.769 604.706C584.899 603.888 585.667 603.33 586.485 603.459C587.303 603.588 587.862 604.356 587.733 605.174L587.187 608.608C584.815 623.439 582.327 637.762 579.094 655.455L569.5 707.528L569.436 707.881C565.778 728.136 562.613 746.677 559.436 766.773C559.274 767.793 558.154 768.349 557.244 767.859L529.623 753.02C529.17 752.777 528.876 752.321 528.837 751.815L528.832 751.676L529.097 735.449C529.407 718.014 529.81 700.113 530.49 672.606L532.043 609.804C532.495 590.663 532.787 576.467 533.03 561.776L533.14 554.838L532.531 555.174C502.828 571.475 475.025 582.474 448.298 589.907L447.005 590.264L445.527 590.665C432.913 594.051 425.316 595.117 416.072 594.525L415.402 594.478C413.093 594.3 410.016 593.912 406.366 593.226C400.194 592.065 393.895 590.31 387.745 587.842C370.588 580.956 357.432 569.765 350.614 553.322C344.905 539.57 344.835 525.153 348.587 511.112Z" fill="black"/><path id="Stroke 19" d="M568.178 463.628C568.891 463.312 569.718 463.595 570.093 464.261L570.158 464.39L656.354 658.5C656.66 659.188 656.407 659.987 655.781 660.379L655.659 660.448L629.303 673.749C628.655 674.076 627.874 673.89 627.439 673.326L627.357 673.208L515.973 495.871L495.672 489.078C494.933 488.831 494.514 488.064 494.686 487.319L494.726 487.18C494.973 486.441 495.741 486.022 496.485 486.194L496.624 486.233L517.433 493.196C517.715 493.291 517.962 493.466 518.143 493.7L518.227 493.821L629.171 670.455L653.033 658.412L567.416 465.608C567.1 464.895 567.384 464.068 568.049 463.693L568.178 463.628Z" fill="black"/><path id="Stroke 21" d="M609.985 387.935C610.335 387.422 610.96 387.181 611.556 387.316L611.693 387.354L637.13 395.71C638.017 396.001 638.415 397.015 637.995 397.824L637.925 397.944L619.74 426.346C619.294 427.043 618.366 427.247 617.668 426.8C617.012 426.38 616.793 425.533 617.142 424.853L617.214 424.728L634.354 397.955L611.829 390.555L583.528 432.121C583.089 432.766 582.237 432.96 581.567 432.592L581.444 432.517C580.799 432.078 580.604 431.226 580.972 430.556L581.048 430.433L609.985 387.935Z" fill="black"/><path id="Stroke 23" d="M630.665 158.679C644.812 158.679 656.28 170.147 656.28 184.294C656.28 192.722 652.177 200.464 645.42 205.235C644.743 205.713 643.807 205.552 643.329 204.875C642.852 204.198 643.013 203.262 643.69 202.784C649.659 198.57 653.28 191.737 653.28 184.294C653.28 171.804 643.155 161.679 630.665 161.679C618.175 161.679 608.05 171.804 608.05 184.294C608.05 188.143 609.012 191.85 610.822 195.15C611.22 195.877 610.954 196.789 610.228 197.187C609.502 197.585 608.59 197.319 608.191 196.593C606.14 192.853 605.05 188.651 605.05 184.294C605.05 170.147 616.518 158.679 630.665 158.679Z" fill="black"/><path id="Fill 25" fill-rule="evenodd" clip-rule="evenodd" d="M530.332 749.921L529.174 774.827L583.763 800.834L584.228 796.987C585.266 788.412 581.337 779.992 574.1 775.278L557.954 764.761L530.332 749.921Z" fill="black"/><path id="Stroke 27" fill-rule="evenodd" clip-rule="evenodd" d="M527.675 774.758L528.833 749.852C528.885 748.749 530.069 748.077 531.042 748.6L558.664 763.44L558.773 763.504L574.919 774.021C582.635 779.048 586.824 788.025 585.717 797.167L585.252 801.014C585.129 802.032 584.043 802.629 583.118 802.188L528.529 776.181C527.984 775.922 527.647 775.361 527.675 774.758ZM557.187 766.052L531.719 752.369L530.718 773.901L582.523 798.582L582.739 796.807C583.692 788.934 580.16 781.199 573.616 776.758L573.281 776.535L557.187 766.052Z" fill="black"/><path id="Fill 29" fill-rule="evenodd" clip-rule="evenodd" d="M628.053 672.878L638.075 688.306L693.584 661.701C688.594 653.8 678.746 650.482 669.992 653.753L654.408 659.577L628.053 672.878Z" fill="black"/><path id="Stroke 31" fill-rule="evenodd" clip-rule="evenodd" d="M653.732 658.238L653.882 658.172L669.467 652.348C678.886 648.829 689.482 652.399 694.852 660.901C695.331 661.659 695.041 662.666 694.232 663.054L638.723 689.659C638.043 689.985 637.227 689.756 636.817 689.124L626.795 673.696C626.308 672.947 626.58 671.942 627.377 671.539L653.732 658.238ZM638.614 686.384L691.343 661.111L691.244 660.983C686.391 654.79 678.019 652.355 670.517 655.159L655.01 660.953L630.221 673.463L638.614 686.384Z" fill="black"/><path id="Stroke 33" d="M578.14 488.957C578.333 488.202 579.068 487.728 579.823 487.846L579.965 487.875L591.137 490.727C605.326 494.347 614.153 508.446 611.275 522.75L611.184 523.184L606.172 546.2C605.996 547.009 605.197 547.522 604.387 547.346C603.626 547.18 603.126 546.463 603.217 545.704L603.241 545.561L608.253 522.545C611.028 509.801 603.319 497.147 590.777 493.734L590.396 493.634L579.223 490.782C578.42 490.577 577.935 489.76 578.14 488.957Z" fill="black"/><path id="Stroke 35" d="M382.622 454.009C383.445 453.915 384.189 454.505 384.283 455.329C385.026 461.816 387.226 468.327 391.923 474.439C396.106 479.88 401.432 483.737 407.454 486.285C411.453 487.977 414.979 488.824 418.229 489.252C419.05 489.36 419.628 490.113 419.52 490.935C419.412 491.756 418.659 492.334 417.837 492.226C414.342 491.766 410.565 490.859 406.285 489.048C399.811 486.309 394.065 482.147 389.545 476.267C384.471 469.667 382.102 462.654 381.303 455.67C381.208 454.847 381.799 454.103 382.622 454.009Z" fill="black"/><path id="Stroke 37" d="M397.764 420.393C398.013 419.603 398.855 419.164 399.645 419.414C400.435 419.663 400.874 420.505 400.625 421.295C398.661 427.522 398.019 434.366 399.822 441.86C401.426 448.533 404.72 454.225 409.182 459.004C412.146 462.178 415.021 464.387 417.815 466.102C418.522 466.535 418.743 467.458 418.31 468.165C417.876 468.871 416.953 469.092 416.247 468.659C413.241 466.815 410.161 464.448 406.99 461.051C402.192 455.914 398.639 449.773 396.905 442.562C394.958 434.468 395.65 427.097 397.764 420.393Z" fill="black"/><path id="Fill 39" fill-rule="evenodd" clip-rule="evenodd" d="M316.297 623.817H505.992V592.247H316.297V623.817Z" fill="black"/><path id="Stroke 41" d="M630.665 141.973C654.038 141.973 672.986 160.921 672.986 184.294C672.986 199.493 664.906 213.29 652.031 220.834C651.316 221.253 650.397 221.013 649.978 220.298C649.559 219.583 649.799 218.664 650.514 218.245C662.479 211.234 669.986 198.417 669.986 184.294C669.986 162.577 652.381 144.973 630.665 144.973C608.949 144.973 591.343 162.577 591.343 184.294C591.343 192.77 594.03 200.837 598.937 207.525C599.427 208.193 599.283 209.132 598.615 209.622C597.947 210.112 597.008 209.968 596.518 209.3C591.237 202.101 588.343 193.413 588.343 184.294C588.343 160.92 607.292 141.973 630.665 141.973Z" fill="black"/><g id="Group"><path id="Stroke 42" fill-rule="evenodd" clip-rule="evenodd" d="M177.324 255.313H200.382C230.936 255.313 255.706 280.082 255.706 310.636V364.46C255.706 365.289 255.034 365.96 254.206 365.96H177.324C146.769 365.96 122 341.191 122 310.636C122 280.082 146.769 255.313 177.324 255.313ZM252.706 310.636C252.706 282.028 229.746 258.783 201.247 258.32L200.382 258.313H177.324C148.426 258.313 125 281.739 125 310.636C125 339.534 148.426 362.96 177.324 362.96L252.705 362.96L252.706 310.636Z" fill="black"/><path id="Stroke 43" d="M209.744 294.377C210.572 294.377 211.244 295.049 211.244 295.877C211.244 296.657 210.649 297.298 209.888 297.371L209.744 297.377H167.962C167.133 297.377 166.462 296.706 166.462 295.877C166.462 295.098 167.057 294.457 167.817 294.384L167.962 294.377H209.744Z" fill="black"/><path id="Stroke 44" d="M209.744 320.306C210.572 320.306 211.244 320.978 211.244 321.806C211.244 322.586 210.649 323.227 209.888 323.299L209.744 323.306H167.962C167.133 323.306 166.462 322.635 166.462 321.806C166.462 321.026 167.057 320.386 167.817 320.313L167.962 320.306H209.744Z" fill="black"/><path id="Fill 45" fill-rule="evenodd" clip-rule="evenodd" d="M200.229 444.021H277.111C306.837 444.021 330.935 419.923 330.935 390.197C330.935 360.471 306.837 336.374 277.111 336.374H254.053C224.327 336.374 200.229 360.471 200.229 390.197V444.021Z" fill="black"/><path id="Fill 46" fill-rule="evenodd" clip-rule="evenodd" d="M250.369 390.197C250.369 394.088 247.215 397.242 243.324 397.242C239.433 397.242 236.279 394.088 236.279 390.197C236.279 386.306 239.433 383.152 243.324 383.152C247.215 383.152 250.369 386.306 250.369 390.197" fill="white"/><path id="Fill 47" fill-rule="evenodd" clip-rule="evenodd" d="M272.627 390.197C272.627 394.088 269.474 397.242 265.582 397.242C261.691 397.242 258.538 394.088 258.538 390.197C258.538 386.306 261.691 383.152 265.582 383.152C269.474 383.152 272.627 386.306 272.627 390.197" fill="white"/><path id="Fill 48" fill-rule="evenodd" clip-rule="evenodd" d="M294.886 390.197C294.886 394.088 291.732 397.242 287.841 397.242C283.95 397.242 280.796 394.088 280.796 390.197C280.796 386.306 283.95 383.152 287.841 383.152C291.732 383.152 294.886 386.306 294.886 390.197" fill="white"/></g><path id="Stroke 49" fill-rule="evenodd" clip-rule="evenodd" d="M713.095 256.663H779.827C788.149 256.663 794.895 263.409 794.895 271.731C794.895 280.053 788.148 286.799 779.827 286.799H713.095C704.773 286.799 698.026 280.053 698.026 271.731C698.026 263.409 704.772 256.663 713.095 256.663ZM779.827 259.663H713.095C706.429 259.663 701.026 265.066 701.026 271.731C701.026 278.396 706.43 283.799 713.095 283.799H779.827C786.492 283.799 791.895 278.396 791.895 271.731C791.895 265.066 786.492 259.663 779.827 259.663Z" fill="black"/><path id="Stroke 50" fill-rule="evenodd" clip-rule="evenodd" d="M713.095 419.029H779.827C788.149 419.029 794.895 425.776 794.895 434.098C794.895 442.42 788.148 449.166 779.827 449.166H713.095C704.773 449.166 698.026 442.42 698.026 434.098C698.026 425.776 704.773 419.029 713.095 419.029ZM779.827 422.029H713.095C706.429 422.029 701.026 427.433 701.026 434.098C701.026 440.763 706.43 446.166 713.095 446.166H779.827C786.492 446.166 791.895 440.763 791.895 434.098C791.895 427.433 786.492 422.029 779.827 422.029Z" fill="black"/><path id="Fill 51" fill-rule="evenodd" clip-rule="evenodd" d="M847.113 285.299H825.46C817.967 285.299 811.892 279.224 811.892 271.731C811.892 264.237 817.967 258.163 825.46 258.163H847.113C854.607 258.163 860.681 264.237 860.681 271.731C860.681 279.224 854.607 285.299 847.113 285.299" fill="black"/><path id="Stroke 52" fill-rule="evenodd" clip-rule="evenodd" d="M825.46 256.663H847.113C855.436 256.663 862.181 263.409 862.181 271.731C862.181 280.053 855.435 286.799 847.113 286.799H825.46C817.139 286.799 810.392 280.053 810.392 271.731C810.392 263.409 817.138 256.663 825.46 256.663ZM847.113 259.663H825.46C818.795 259.663 813.392 265.066 813.392 271.731C813.392 278.396 818.796 283.799 825.46 283.799H847.113C853.778 283.799 859.181 278.396 859.181 271.731C859.181 265.066 853.779 259.663 847.113 259.663Z" fill="black"/><path id="Fill 53" fill-rule="evenodd" clip-rule="evenodd" d="M808.133 393.543H713.095C705.602 393.543 699.527 387.469 699.527 379.976C699.527 372.481 705.602 366.407 713.095 366.407H808.133C815.626 366.407 821.701 372.481 821.701 379.976C821.701 387.469 815.626 393.543 808.133 393.543" fill="black"/><path id="Stroke 54" fill-rule="evenodd" clip-rule="evenodd" d="M713.095 364.907H808.133C816.455 364.907 823.201 371.653 823.201 379.976C823.201 388.297 816.454 395.043 808.133 395.043H713.095C704.773 395.043 698.027 388.297 698.027 379.976C698.027 371.653 704.773 364.907 713.095 364.907ZM808.133 367.907H713.095C706.43 367.907 701.027 373.31 701.027 379.976C701.027 386.641 706.43 392.043 713.095 392.043H808.133C814.797 392.043 820.201 386.641 820.201 379.976C820.201 373.31 814.798 367.907 808.133 367.907Z" fill="black"/><path id="Stroke 55" fill-rule="evenodd" clip-rule="evenodd" d="M799.572 310.785H884.65C892.972 310.785 899.718 317.531 899.718 325.853C899.718 334.175 892.972 340.921 884.65 340.921H799.572C791.25 340.921 784.504 334.176 784.504 325.853C784.504 317.531 791.25 310.785 799.572 310.785ZM884.65 313.785H799.572C792.907 313.785 787.504 319.188 787.504 325.853C787.504 332.519 792.907 337.921 799.572 337.921H884.65C891.315 337.921 896.718 332.518 896.718 325.853C896.718 319.188 891.315 313.785 884.65 313.785Z" fill="black"/><path id="Fill 56" fill-rule="evenodd" clip-rule="evenodd" d="M750.895 339.421H710.895C703.402 339.421 697.327 333.347 697.327 325.853C697.327 318.359 703.402 312.285 710.895 312.285H750.895C758.388 312.285 764.462 318.359 764.462 325.853C764.462 333.347 758.388 339.421 750.895 339.421" fill="black"/><path id="Stroke 57" fill-rule="evenodd" clip-rule="evenodd" d="M710.895 310.785H750.895C759.217 310.785 765.962 317.531 765.962 325.853C765.962 334.175 759.217 340.921 750.895 340.921H710.895C702.574 340.921 695.827 334.175 695.827 325.853C695.827 317.531 702.574 310.785 710.895 310.785ZM750.895 313.785H710.895C704.23 313.785 698.827 319.188 698.827 325.853C698.827 332.518 704.23 337.921 710.895 337.921H750.895C757.56 337.921 762.962 332.519 762.962 325.853C762.962 319.188 757.56 313.785 750.895 313.785Z" fill="black"/><path id="Stroke 58" d="M532.468 162.939C532.993 161.449 535.133 161.691 535.364 163.19L535.38 163.334L537.05 187.637L542.501 175.472C542.886 174.611 543.951 174.325 544.712 174.844L544.824 174.928L549.734 178.977H558.517L564.456 164.853C565.02 163.51 566.943 163.692 567.289 165.049L567.319 165.193L570.938 187.454L576.092 177.871C576.462 177.185 577.289 176.902 577.994 177.198L578.124 177.261C578.811 177.63 579.093 178.458 578.797 179.162L578.735 179.292L571.488 192.766C570.831 193.986 569.041 193.731 568.714 192.434L568.686 192.297L565.196 170.833L560.897 181.059C560.681 181.573 560.2 181.921 559.653 181.972L559.514 181.978H549.196C548.898 181.978 548.607 181.889 548.361 181.724L548.242 181.635L544.433 178.494L537.335 194.341C536.717 195.722 534.708 195.411 534.486 193.973L534.47 193.831L532.886 170.795L529.308 180.975C529.113 181.53 528.614 181.915 528.038 181.971L527.892 181.978H516.057C515.229 181.978 514.557 181.306 514.557 180.478C514.557 179.698 515.152 179.057 515.913 178.985L516.057 178.978L526.83 178.977L532.468 162.939Z" fill="black"/><path id="Stroke 59" d="M723.911 162.447C724.339 160.941 726.463 161.032 726.81 162.493L726.838 162.638L729.823 182.86L730.721 180.025C730.905 179.446 731.417 179.04 732.012 178.985L732.151 178.978H740.02C740.849 178.978 741.52 179.65 741.52 180.478C741.52 181.258 740.925 181.899 740.165 181.971L740.02 181.978L733.249 181.977L730.719 189.967C730.254 191.435 728.178 191.317 727.834 189.881L727.805 189.733L724.889 169.977L721.788 180.888C721.618 181.487 721.098 181.914 720.487 181.971L720.345 181.978L716.594 181.977L713.898 189.992C713.444 191.341 711.571 191.343 711.08 190.066L711.033 189.924L706.652 174.491L705.134 180.828C704.983 181.458 704.447 181.914 703.813 181.972L703.675 181.978H697.01C696.394 181.978 695.845 181.602 695.619 181.039L695.572 180.905L692.289 169.857L689.451 189.726C689.261 191.059 687.568 191.467 686.78 190.433L686.699 190.317L680.973 181.281C680.53 180.581 680.738 179.655 681.437 179.211C682.096 178.794 682.956 178.953 683.424 179.557L683.507 179.675L687.056 185.276L690.289 162.645C690.51 161.101 692.616 160.899 693.164 162.29L693.212 162.43L698.128 178.977H702.492L705.072 168.22C705.419 166.769 707.412 166.68 707.925 168.017L707.973 168.161L712.597 184.448L714.094 180C714.285 179.433 714.792 179.038 715.379 178.984L715.516 178.978L719.212 178.977L723.911 162.447Z" fill="black"/><path id="Fill 60" fill-rule="evenodd" clip-rule="evenodd" d="M642.131 357.243C642.131 367.086 634.152 375.065 624.309 375.065C614.466 375.065 606.486 367.086 606.486 357.243C606.486 347.4 614.466 339.421 624.309 339.421C634.152 339.421 642.131 347.4 642.131 357.243" fill="black"/><path id="Fill 61" fill-rule="evenodd" clip-rule="evenodd" d="M634.837 353.439C634.837 357.152 631.826 360.163 628.113 360.163C624.4 360.163 621.39 357.152 621.39 353.439C621.39 349.726 624.4 346.715 628.113 346.715C631.826 346.715 634.837 349.726 634.837 353.439" fill="white"/><path id="Fill 62" fill-rule="evenodd" clip-rule="evenodd" d="M760.613 535.407L730.944 565.076L701.275 535.407L730.944 505.737L760.613 535.407Z" fill="black"/><path id="Stroke 63" fill-rule="evenodd" clip-rule="evenodd" d="M700.214 534.346L729.883 504.676C730.469 504.09 731.419 504.09 732.005 504.676L761.674 534.346C762.26 534.932 762.26 535.882 761.674 536.467L732.005 566.136C731.419 566.722 730.469 566.722 729.883 566.136L700.214 536.467C699.629 535.882 699.629 534.932 700.214 534.346ZM758.492 535.406L730.944 507.858L703.395 535.406L730.944 562.955L758.492 535.406Z" fill="black"/><path id="Fill 64" fill-rule="evenodd" clip-rule="evenodd" d="M790.283 535.407L760.613 565.076L730.944 535.407L760.613 505.737L790.283 535.407Z" fill="white"/><path id="Stroke 65" fill-rule="evenodd" clip-rule="evenodd" d="M729.883 534.346L759.552 504.676C760.138 504.09 761.088 504.09 761.674 504.676L791.344 534.346C791.93 534.932 791.93 535.882 791.344 536.467L761.674 566.136C761.088 566.722 760.138 566.722 759.552 566.136L729.883 536.467C729.298 535.882 729.298 534.932 729.883 534.346ZM788.161 535.406L760.613 507.858L733.064 535.406L760.613 562.955L788.161 535.406Z" fill="black"/><path id="Fill 66" fill-rule="evenodd" clip-rule="evenodd" d="M819.952 535.407L790.283 565.076L760.613 535.407L790.283 505.737L819.952 535.407Z" fill="white"/><path id="Stroke 67" fill-rule="evenodd" clip-rule="evenodd" d="M759.552 534.346L789.222 504.676C789.808 504.09 790.758 504.09 791.344 504.676L821.013 534.346C821.598 534.932 821.598 535.882 821.013 536.467L791.344 566.136C790.758 566.722 789.808 566.722 789.222 566.136L759.552 536.467C758.967 535.882 758.967 534.932 759.552 534.346ZM817.831 535.406L790.282 507.858L762.734 535.406L790.282 562.955L817.831 535.406Z" fill="black"/><path id="Fill 68" fill-rule="evenodd" clip-rule="evenodd" d="M648.782 397.5C648.782 403.626 643.816 408.592 637.69 408.592C631.564 408.592 626.598 403.626 626.598 397.5C626.598 391.374 631.564 386.408 637.69 386.408C643.816 386.408 648.782 391.374 648.782 397.5" fill="black"/><path id="Fill 69" fill-rule="evenodd" clip-rule="evenodd" d="M645.13 395.396C645.13 397.052 643.787 398.395 642.131 398.395C640.474 398.395 639.131 397.052 639.131 395.396C639.131 393.739 640.474 392.396 642.131 392.396C643.787 392.396 645.13 393.739 645.13 395.396" fill="white"/><path id="Fill 70" fill-rule="evenodd" clip-rule="evenodd" d="M596.473 376.47C596.473 380.387 593.298 383.563 589.38 383.563C585.463 383.563 582.288 380.387 582.288 376.47C582.288 372.553 585.463 369.377 589.38 369.377C593.298 369.377 596.473 372.553 596.473 376.47" fill="black"/><path id="Fill 71" fill-rule="evenodd" clip-rule="evenodd" d="M588.369 374.696C588.369 375.676 587.574 376.47 586.594 376.47C585.614 376.47 584.819 375.676 584.819 374.696C584.819 373.716 585.614 372.922 586.594 372.922C587.574 372.922 588.369 373.716 588.369 374.696" fill="white"/><path id="Stroke 72" fill-rule="evenodd" clip-rule="evenodd" d="M175.689 452.445C175.095 451.867 174.145 451.88 173.567 452.474C148.833 477.895 135.842 513.939 140.794 546.937L140.953 547.949C143.871 565.809 152.853 582.2 165.535 594.329L165.839 594.616L165.749 595.549C163.043 625.402 174.889 657.541 197.542 683.754C229.214 720.402 280.013 737.705 331.031 731.107C370.698 725.976 408.305 705.677 435.555 675.132C436.106 674.513 436.052 673.565 435.434 673.014C434.816 672.462 433.868 672.516 433.316 673.134C406.54 703.149 369.588 723.095 330.646 728.131C280.59 734.605 230.797 717.645 199.811 681.792L198.908 680.737C177.979 656.049 166.814 626.217 168.552 598.323L168.632 597.141L169.221 597.645C179.555 606.386 191.969 612.418 205.369 614.447C222.919 617.104 242.094 611.359 256.537 599.489C271.636 587.081 279.703 569.631 277.63 551.199C276.231 538.746 268.789 529.575 257.284 524.647C247 520.242 234.181 519.642 222.882 522.854C202.756 528.578 185.215 543.855 174.912 563.778L174.347 564.892C170.264 573.084 167.625 581.749 166.325 590.663L166.296 590.874L166.203 590.782C154.505 579.024 146.3 563.411 143.761 546.491C138.954 514.461 151.612 479.341 175.718 454.566C176.295 453.972 176.282 453.023 175.689 452.445ZM223.703 525.74C234.356 522.711 246.469 523.278 256.103 527.405C266.657 531.925 273.376 540.205 274.649 551.535C276.601 568.899 268.984 585.377 254.632 597.171C240.829 608.515 222.501 614.007 205.818 611.481L204.88 611.332C191.765 609.147 179.647 602.943 169.673 594.065L168.99 593.449L169.122 592.378C170.356 582.922 173.132 573.753 177.577 565.156C187.514 545.941 204.408 531.227 223.703 525.74Z" fill="black"/><path id="Stroke 73" d="M769.465 640.37C784.719 640.37 798.458 648.915 805.345 662.231C808.278 667.903 809.828 674.204 809.828 680.732C809.828 684.226 809.384 687.663 808.515 690.985C808.305 691.787 807.485 692.266 806.684 692.057C805.882 691.847 805.403 691.027 805.612 690.226C806.417 687.151 806.828 683.969 806.828 680.732C806.828 674.687 805.394 668.857 802.68 663.609C796.304 651.279 783.586 643.37 769.465 643.37C749.033 643.37 732.43 659.765 732.1 680.114L732.096 680.965L732.102 681.162C732.142 681.989 731.504 682.693 730.676 682.733C729.849 682.773 729.145 682.135 729.105 681.307L729.1 681.159L729.096 680.944L729.095 680.732C729.095 658.441 747.17 640.37 769.465 640.37Z" fill="black"/><path id="Stroke 74" d="M808.51 661.065C825.089 661.065 838.529 674.507 838.529 691.083C838.529 707.661 825.089 721.103 808.51 721.103C807.681 721.103 807.01 720.432 807.01 719.603C807.01 718.775 807.681 718.103 808.51 718.103C823.432 718.103 835.529 706.004 835.529 691.083C835.529 676.164 823.432 664.065 808.51 664.065C807.085 664.065 805.664 664.179 804.245 664.401C803.427 664.53 802.659 663.97 802.531 663.152C802.402 662.334 802.962 661.566 803.78 661.438C805.351 661.191 806.927 661.065 808.51 661.065Z" fill="black"/><path id="Stroke 75" d="M730.502 679.738C731.329 679.683 732.044 680.307 732.1 681.134C732.156 681.96 731.531 682.676 730.704 682.732C721.448 683.357 714.216 691.063 714.216 700.39C714.216 710.176 722.141 718.103 731.921 718.103C732.75 718.103 733.421 718.774 733.421 719.603C733.421 720.431 732.75 721.103 731.921 721.103C720.484 721.103 711.216 711.833 711.216 700.39C711.216 689.482 719.673 680.47 730.502 679.738Z" fill="black"/><path id="Stroke 76" d="M751.457 709.115C752.237 709.115 752.877 709.71 752.95 710.47L752.957 710.615V733.137C752.957 733.965 752.285 734.637 751.457 734.637C750.677 734.637 750.037 734.042 749.964 733.281L749.957 733.137V710.615C749.957 709.786 750.629 709.115 751.457 709.115Z" fill="black"/><path id="Stroke 77" d="M770.277 709.115C771.057 709.115 771.698 709.71 771.77 710.47L771.777 710.615V747.33C771.777 748.158 771.106 748.83 770.277 748.83C769.498 748.83 768.857 748.235 768.784 747.474L768.777 747.33V710.615C768.777 709.786 769.449 709.115 770.277 709.115Z" fill="black"/><path id="Stroke 78" d="M789.097 709.115C789.877 709.115 790.518 709.71 790.591 710.47L790.597 710.615V733.137C790.597 733.965 789.926 734.637 789.097 734.637C788.318 734.637 787.677 734.042 787.604 733.281L787.597 733.137V710.615C787.597 709.786 788.269 709.115 789.097 709.115Z" fill="black"/><path id="Stroke 79" d="M319.603 157.467C322.068 157.467 324.471 157.831 326.753 158.544C327.543 158.791 327.984 159.632 327.737 160.423C327.49 161.213 326.649 161.654 325.858 161.407C323.867 160.785 321.766 160.467 319.603 160.467C307.893 160.467 298.401 169.962 298.401 181.679C298.401 193.39 307.897 202.891 319.603 202.891C320.432 202.891 321.103 203.563 321.103 204.391C321.103 205.22 320.432 205.891 319.603 205.891C306.24 205.891 295.401 195.046 295.401 181.679C295.401 168.305 306.236 157.467 319.603 157.467Z" fill="black"/><path id="Stroke 80" d="M381.628 166.5C381.883 165.712 382.729 165.28 383.517 165.535C391.976 168.276 397.816 176.183 397.816 185.213C397.816 196.634 388.558 205.891 377.138 205.891C371.893 205.891 366.951 203.931 363.165 200.46C362.554 199.9 362.513 198.951 363.073 198.341C363.633 197.73 364.582 197.689 365.192 198.249C368.43 201.217 372.651 202.891 377.138 202.891C386.901 202.891 394.816 194.977 394.816 185.213C394.816 177.493 389.822 170.732 382.592 168.389C381.804 168.134 381.372 167.288 381.628 166.5Z" fill="black"/><path id="Stroke 81" d="M354.905 131.475C371.549 131.475 385.054 144.98 385.054 161.625C385.054 163.521 384.876 165.407 384.528 167.241C384.374 168.055 383.589 168.59 382.775 168.436C381.961 168.282 381.427 167.497 381.581 166.683C381.893 165.032 382.054 163.334 382.054 161.625C382.054 146.637 369.892 134.475 354.905 134.475C340.495 134.475 328.617 145.738 327.803 160.06C327.756 160.887 327.048 161.52 326.221 161.473C325.393 161.426 324.761 160.717 324.808 159.89C325.712 143.982 338.902 131.475 354.905 131.475Z" fill="black"/><path id="Stroke 82" d="M323.513 202.888C324.342 202.888 325.013 203.56 325.013 204.388C325.013 205.168 324.418 205.809 323.658 205.881L323.513 205.888H319.607C318.779 205.888 318.107 205.217 318.107 204.388C318.107 203.608 318.702 202.968 319.463 202.895L319.607 202.888H323.513Z" fill="black"/><path id="Stroke 83" d="M335.539 186.803C336.319 186.803 336.959 187.398 337.032 188.159L337.039 188.303V225.962C337.039 226.791 336.367 227.462 335.539 227.462C334.759 227.462 334.118 226.867 334.046 226.107L334.039 225.962V188.303C334.039 187.475 334.711 186.803 335.539 186.803Z" fill="black"/><path id="Stroke 84" d="M351.895 173.563C352.675 173.563 353.316 174.158 353.389 174.919L353.395 175.063V212.722C353.395 213.55 352.724 214.222 351.895 214.222C351.116 214.222 350.475 213.627 350.402 212.866L350.395 212.722V175.063C350.395 174.235 351.067 173.563 351.895 173.563Z" fill="black"/><path id="Stroke 85" d="M609.164 400.567C609.418 399.83 610.189 399.418 610.932 399.596L611.071 399.637L622.56 403.587C623.343 403.856 623.76 404.709 623.49 405.493C623.237 406.23 622.466 406.643 621.723 406.464L621.584 406.424L610.095 402.474C609.312 402.204 608.895 401.351 609.164 400.567Z" fill="black"/><path id="Stroke 86" d="M603.419 408.533C603.673 407.796 604.444 407.383 605.187 407.562L605.326 407.602L616.815 411.553C617.598 411.823 618.015 412.676 617.745 413.46C617.492 414.197 616.721 414.609 615.978 414.431L615.839 414.39L604.35 410.439C603.567 410.17 603.15 409.317 603.419 408.533Z" fill="black"/></g></g></svg>