<svg xmlns="http://www.w3.org/2000/svg" version="1.1" xmlns:xlink="http://www.w3.org/1999/xlink" xmlns:svgjs="http://svgjs.com/svgjs" width="1000" height="1000"><style>
    #light-icon {
      display: inline;
    }
    #dark-icon {
      display: none;
    }

    @media (prefers-color-scheme: dark) {
      #light-icon {
        display: none;
      }
      #dark-icon {
        display: inline;
      }
    }
  </style><g id="light-icon"><svg xmlns="http://www.w3.org/2000/svg" version="1.1" xmlns:xlink="http://www.w3.org/1999/xlink" xmlns:svgjs="http://svgjs.com/svgjs" width="1000" height="1000"><g transform="matrix(41.666666666666664,0,0,41.666666666666664,0,0)"><svg xmlns="http://www.w3.org/2000/svg" version="1.1" xmlns:xlink="http://www.w3.org/1999/xlink" xmlns:svgjs="http://svgjs.com/svgjs" width="24" height="24"><svg xmlns="http://www.w3.org/2000/svg" width="24" height="24" viewBox="0 0 24 24"><path d="M19.7.5H4.3C2.2.5.5 2.2.5 4.3v15.4c0 2.1 1.7 3.8 3.8 3.8h15.4c2.1 0 3.8-1.7 3.8-3.8V4.3c0-2.1-1.7-3.8-3.8-3.8zm-.9 17.7l.1.1c.1.1.1.3 0 .5-.1.1-.2.2-.4.2H15c-.2 0-.3-.1-.4-.2L12 14.4l-2.6 4.4c-.1.2-.2.3-.4.3H5.5c-.2 0-.3-.1-.4-.2-.1-.1-.1-.3 0-.5 0-.1 0-.1.1-.1L8.7 12 5.1 5.8 5 5.7c0-.2 0-.4.1-.5.1-.2.3-.3.4-.3H9c.2 0 .3.1.4.2L12 9.6l2.6-4.4c.1-.2.2-.3.4-.3h3.5c.2 0 .3.1.4.2.1.1.1.3 0 .5 0 .1 0 .1-.1.1L15.3 12l3.5 6.2z"></path></svg></svg></g></svg></g><g id="dark-icon"><svg xmlns="http://www.w3.org/2000/svg" version="1.1" xmlns:xlink="http://www.w3.org/1999/xlink" xmlns:svgjs="http://svgjs.com/svgjs" width="1000" height="1000"><rect width="1000" height="1000" rx="200" ry="200" fill="#ffffff"></rect><g transform="matrix(25,0,0,25,199.9999771118164,199.9999771118164)"><svg xmlns="http://www.w3.org/2000/svg" version="1.1" xmlns:xlink="http://www.w3.org/1999/xlink" xmlns:svgjs="http://svgjs.com/svgjs" width="24" height="24"><svg xmlns="http://www.w3.org/2000/svg" width="24" height="24" viewBox="0 0 24 24"><path d="M22.8 23.5H17c-.2 0-.3-.1-.4-.2l-4.6-8-4.6 7.9c-.1.2-.2.2-.4.2H1.2c-.2 0-.3-.1-.4-.2-.1-.1-.1-.3 0-.5 0-.1.1-.2.1-.2l6-10.5L.8 1.4c0-.1-.1-.1-.1-.2C.6 1 .6.8.7.7c.1-.1.3-.2.5-.2H7c.2 0 .3.1.4.2l4.6 8L16.6.8c.1-.2.2-.2.4-.2h5.9c.2 0 .3.1.4.2.1.1.1.3 0 .5 0 .1-.1.2-.1.2L17.1 12l6.1 10.6c0 .1.1.1.1.2.1.2.1.4 0 .5-.1.1-.3.2-.5.2z"></path></svg></svg></g></svg></g></svg>